<svg width="16" height="18" viewBox="0 0 16 18" fill="none" xmlns="http://www.w3.org/2000/svg">
<path fill-rule="evenodd" clip-rule="evenodd" d="M15.5 15.6666V3.99995C15.5 3.08329 14.75 2.33329 13.8333 2.33329H13V0.666626H11.3333V2.33329H4.66667V0.666626H3V2.33329H2.16667C1.24167 2.33329 0.508333 3.08329 0.508333 3.99995L0.5 15.6666C0.5 16.5833 1.24167 17.3333 2.16667 17.3333H13.8333C14.75 17.3333 15.5 16.5833 15.5 15.6666ZM5.5 8.16662H3.83333V9.83328H5.5V8.16662ZM2.16667 5.66661H13.8333V3.99995H2.16667V5.66661ZM13.8333 7.33329V15.6666H2.16667V7.33329H13.8333ZM10.5 9.83328H12.1667V8.16662H10.5V9.83328ZM8.83333 9.83328H7.16667V8.16662H8.83333V9.83328Z" fill="#010101"/>
</svg>
